<svg viewBox="0 0 600 600" xmlns="http://www.w3.org/2000/svg">
  <defs>
    <filter id="inkRough" x="-20%" y="-20%" width="140%" height="140%">
      <feTurbulence type="fractalNoise" baseFrequency="0.012 0.018" numOctaves="2" seed="7" result="noise"/>
      <feDisplacementMap in="SourceGraphic" in2="noise" scale="3.4" xChannelSelector="R" yChannelSelector="G"/>
    </filter>
    <filter id="inkRoughFine" x="-20%" y="-20%" width="140%" height="140%">
      <feTurbulence type="fractalNoise" baseFrequency="0.02 0.03" numOctaves="2" seed="14" result="noise2"/>
      <feDisplacementMap in="SourceGraphic" in2="noise2" scale="1.6" xChannelSelector="R" yChannelSelector="G"/>
    </filter>
    <filter id="paperGrain">
      <feTurbulence type="fractalNoise" baseFrequency="0.9" numOctaves="2" seed="3" result="grain"/>
      <feColorMatrix in="grain" type="matrix"
        values="0 0 0 0 0.07
                0 0 0 0 0.13
                0 0 0 0 0.22
                0 0 0 0.05 0"/>
    </filter>
    <path id="topArc" d="M 138,300 A 162,162 0 0 1 462,300" fill="none"/>
    <path id="bottomArc" d="M 138,300 A 162,162 0 0 0 462,300" fill="none"/>
  </defs>

  <!-- transparent background -->
  <g filter="url(#inkRough)" fill="none" stroke="#16233B" stroke-linecap="round" stroke-linejoin="round">
    <!-- outer + inner ring -->
    <path d="M 555.66,300.00 C 556.53,307.48 559.22,315.16 559.23,322.68 C 559.25,330.20 557.67,337.81 555.74,345.09 C 553.82,352.38 549.92,359.18 547.69,366.37 C 545.47,373.56 544.77,381.14 542.41,388.23 C 540.05,395.32 536.56,402.02 533.53,408.90 C 530.51,415.77 527.72,422.79 524.27,429.49 C 520.83,436.18 517.63,443.26 512.85,449.04 C 508.08,454.82 501.07,458.96 495.65,464.17 C 490.22,469.38 485.04,474.45 480.30,480.30 C 475.56,486.15 472.65,494.17 467.22,499.29 C 461.79,504.40 453.97,506.72 447.74,510.99 C 441.51,515.26 436.51,521.56 429.84,524.89 C 423.16,528.21 414.64,528.07 407.69,530.94 C 400.74,533.81 394.88,538.84 388.12,542.11 C 381.36,545.39 374.41,548.87 367.14,550.58 C 359.87,552.29 351.90,550.82 344.50,552.37 C 337.10,553.92 330.15,558.49 322.73,559.86 C 315.32,561.22 307.49,561.54 300.00,560.57 C 292.51,559.60 285.15,555.61 277.78,554.03 C 270.40,552.45 263.16,551.85 255.73,551.09 C 248.29,550.33 240.64,550.47 233.16,549.46 C 225.67,548.46 217.78,547.80 210.80,545.08 C 203.82,542.36 197.77,537.01 191.29,533.14 C 184.80,529.27 178.40,525.56 171.91,521.86 C 165.41,518.16 158.27,515.36 152.30,510.93 C 146.34,506.51 141.68,500.29 136.10,495.33 C 130.52,490.37 124.40,486.13 118.83,481.17 C 113.25,476.22 107.69,471.12 102.67,465.58 C 97.64,460.05 92.78,454.21 88.68,447.97 C 84.58,441.73 81.54,434.76 78.04,428.15 C 74.55,421.54 70.87,415.06 67.73,408.31 C 64.60,401.55 62.03,394.56 59.25,387.63 C 56.47,380.69 53.04,373.88 51.04,366.71 C 49.04,359.53 48.08,351.98 47.24,344.57 C 46.41,337.15 47.27,329.65 46.03,322.22 C 44.80,314.79 40.41,307.46 39.84,300.00 C 39.27,292.54 41.76,284.98 42.62,277.48 C 43.49,269.99 43.34,262.33 45.02,255.04 C 46.71,247.75 51.14,241.14 52.73,233.74 C 54.33,226.35 52.71,217.97 54.60,210.68 C 56.49,203.39 60.07,196.40 64.08,189.99 C 68.10,183.58 74.42,178.44 78.67,172.21 C 82.91,165.99 85.77,159.13 89.54,152.63 C 93.30,146.14 96.76,139.25 101.27,133.25 C 105.79,127.25 111.43,122.12 116.61,116.61 C 121.79,111.11 126.42,104.81 132.37,100.22 C 138.31,95.63 146.04,93.31 152.30,89.07 C 158.57,84.82 163.58,78.72 169.94,74.74 C 176.31,70.76 183.46,67.85 190.50,65.18 C 197.54,62.52 205.09,61.23 212.19,58.74 C 219.29,56.25 225.98,52.79 233.08,50.25 C 240.18,47.71 247.40,45.09 254.77,43.51 C 262.15,41.93 269.78,41.03 277.32,40.77 C 284.86,40.52 292.46,41.69 300.00,41.97 C 307.54,42.24 315.16,41.27 322.54,42.41 C 329.92,43.56 336.98,47.19 344.28,48.85 C 351.59,50.51 358.91,51.23 366.35,52.38 C 373.78,53.53 381.82,53.39 388.89,55.77 C 395.97,58.15 402.29,62.90 408.80,66.67 C 415.31,70.44 421.39,74.76 427.95,78.38 C 434.51,82.00 441.71,84.57 448.16,88.40 C 454.62,92.23 460.83,96.64 466.67,101.37 C 472.52,106.09 478.16,111.22 483.22,116.78 C 488.28,122.33 492.39,128.77 497.03,134.68 C 501.66,140.59 506.61,146.19 511.02,152.24 C 515.43,158.29 519.41,164.64 523.48,170.97 C 527.55,177.30 532.26,183.42 535.44,190.21 C 538.62,197.00 540.38,204.51 542.57,211.71 C 544.75,218.91 546.64,226.15 548.55,233.40 C 550.46,240.65 553.10,247.81 554.02,255.21 C 554.93,262.61 553.74,270.31 554.02,277.78 C 554.29,285.24 554.79,292.52 555.66,300.00 Z"
      stroke-width="3.4"/>
    <path d="M 534.01,300.00 C 534.46,307.60 534.24,315.45 532.84,322.93 C 531.45,330.41 527.73,337.57 525.63,344.88 C 523.53,352.19 521.92,359.40 520.26,366.82 C 518.61,374.23 518.16,382.17 515.70,389.35 C 513.25,396.52 509.22,403.19 505.52,409.85 C 501.82,416.51 497.99,423.18 493.52,429.31 C 489.05,435.44 483.54,440.80 478.69,446.64 C 473.83,452.49 469.58,458.87 464.38,464.38 C 459.18,469.89 453.36,474.90 447.48,479.70 C 441.60,484.50 435.56,489.27 429.09,493.20 C 422.62,497.13 415.39,499.80 408.66,503.28 C 401.92,506.76 395.57,511.01 388.67,514.06 C 381.76,517.11 374.41,519.15 367.21,521.56 C 360.01,523.97 352.83,526.59 345.45,528.50 C 338.08,530.42 330.53,532.14 322.95,533.05 C 315.38,533.96 307.62,534.31 300.00,533.98 C 292.38,533.65 284.78,532.19 277.24,531.08 C 269.71,529.96 262.17,528.98 254.79,527.30 C 247.40,525.63 240.08,523.51 232.95,521.03 C 225.82,518.56 218.89,515.50 212.00,512.45 C 205.11,509.41 198.42,506.05 191.62,502.77 C 184.82,499.49 177.57,496.78 171.19,492.77 C 164.81,488.76 159.14,483.57 153.33,478.72 C 147.52,473.87 141.99,468.75 136.32,463.68 C 130.66,458.60 124.22,454.06 119.33,448.27 C 114.44,442.49 111.03,435.42 107.00,428.96 C 102.98,422.49 98.54,416.26 95.16,409.49 C 91.78,402.72 89.26,395.46 86.73,388.34 C 84.21,381.21 82.25,373.94 79.99,366.74 C 77.74,359.53 74.76,352.47 73.21,345.11 C 71.66,337.75 71.58,330.10 70.71,322.58 C 69.83,315.06 68.58,307.59 67.96,300.00 C 67.33,292.41 66.31,284.61 66.93,277.04 C 67.56,269.48 69.64,261.92 71.70,254.59 C 73.77,247.26 77.27,240.40 79.33,233.06 C 81.39,225.72 81.57,217.73 84.06,210.55 C 86.55,203.38 90.55,196.69 94.24,190.02 C 97.94,183.35 102.07,176.92 106.24,170.53 C 110.41,164.15 114.46,157.59 119.28,151.69 C 124.09,145.79 129.68,140.47 135.13,135.13 C 140.59,129.80 145.96,124.26 152.01,119.68 C 158.07,115.09 165.19,111.99 171.47,107.63 C 177.74,103.28 183.14,97.50 189.64,93.53 C 196.13,89.55 203.20,86.13 210.44,83.78 C 217.68,81.43 225.74,81.49 233.09,79.42 C 240.43,77.35 247.17,73.24 254.52,71.36 C 261.87,69.49 269.59,68.71 277.17,68.18 C 284.75,67.64 292.40,68.03 300.00,68.17 C 307.60,68.30 315.21,68.26 322.75,68.98 C 330.30,69.71 337.73,71.30 345.25,72.50 C 352.77,73.70 360.63,74.01 367.89,76.20 C 375.14,78.39 381.76,82.67 388.78,85.66 C 395.81,88.64 403.43,90.44 410.05,94.11 C 416.68,97.77 422.17,103.42 428.54,107.63 C 434.90,111.84 442.12,114.85 448.25,119.36 C 454.37,123.87 460.13,129.11 465.29,134.71 C 470.45,140.30 474.56,146.89 479.21,152.93 C 483.85,158.97 488.64,164.80 493.15,170.94 C 497.65,177.08 502.55,183.11 506.24,189.76 C 509.92,196.41 512.63,203.69 515.25,210.84 C 517.87,217.99 520.11,225.31 521.95,232.67 C 523.80,240.03 524.98,247.53 526.34,254.98 C 527.70,262.42 528.84,269.83 530.12,277.34 C 531.39,284.84 533.55,292.40 534.01,300.00 Z"
      stroke-width="2"/>

    <!-- rim ticks (hash / chain marks) -->
    <g stroke-width="2.1">
      <line x1="494.94" y1="300.00" x2="512.41" y2="300.00"/>
      <line x1="495.11" y1="313.64" x2="512.10" y2="314.83"/>
      <line x1="492.38" y1="327.04" x2="511.53" y2="329.73"/>
      <line x1="493.35" y1="341.10" x2="510.50" y2="344.74"/>
      <line x1="489.43" y1="354.32" x2="504.64" y2="358.68"/>
      <line x1="484.32" y1="367.09" x2="500.25" y2="372.89"/>
      <line x1="477.86" y1="379.19" x2="494.06" y2="386.40"/>
      <line x1="472.05" y1="391.48" x2="490.46" y2="401.27"/>
      <line x1="467.33" y1="404.56" x2="482.52" y2="414.05"/>
      <line x1="459.54" y1="415.91" x2="472.14" y2="425.07"/>
      <line x1="449.56" y1="425.50" x2="464.32" y2="437.88"/>
      <line x1="441.66" y1="436.80" x2="454.96" y2="449.64"/>
      <line x1="432.17" y1="446.79" x2="442.09" y2="457.80"/>
      <line x1="420.93" y1="454.78" x2="432.17" y2="469.18"/>
      <line x1="409.62" y1="462.51" x2="418.95" y2="476.35"/>
      <line x1="397.95" y1="469.65" x2="406.18" y2="483.91"/>
      <line x1="386.68" y1="477.73" x2="394.45" y2="493.66"/>
      <line x1="373.49" y1="481.90" x2="379.87" y2="497.68"/>
      <line x1="361.07" y1="487.96" x2="366.22" y2="503.80"/>
      <line x1="347.79" y1="491.66" x2="352.11" y2="508.99"/>
      <line x1="334.04" y1="493.06" x2="337.10" y2="510.41"/>
      <line x1="320.53" y1="495.32" x2="322.34" y2="512.55"/>
      <line x1="306.79" y1="494.53" x2="307.44" y2="513.09"/>
      <line x1="293.12" y1="497.13" x2="292.60" y2="512.04"/>
      <line x1="279.70" y1="493.12" x2="277.58" y2="513.33"/>
      <line x1="266.12" y1="492.16" x2="262.82" y2="510.89"/>
      <line x1="252.61" y1="490.07" x2="248.38" y2="507.03"/>
      <line x1="238.82" y1="488.30" x2="234.25" y2="502.37"/>
      <line x1="226.71" y1="481.40" x2="220.28" y2="497.31"/>
      <line x1="213.85" y1="476.64" x2="206.58" y2="491.54"/>
      <line x1="202.29" y1="469.24" x2="192.51" y2="486.18"/>
      <line x1="190.80" y1="461.90" x2="180.20" y2="477.61"/>
      <line x1="178.33" y1="455.72" x2="169.23" y2="467.38"/>
      <line x1="170.02" y1="444.35" x2="157.53" y2="458.23"/>
      <line x1="158.25" y1="436.89" x2="145.73" y2="448.98"/>
      <line x1="150.66" y1="425.31" x2="136.58" y2="437.12"/>
      <line x1="142.48" y1="414.45" x2="127.00" y2="425.69"/>
      <line x1="135.33" y1="402.90" x2="117.85" y2="413.82"/>
      <line x1="125.54" y1="392.76" x2="109.44" y2="401.32"/>
      <line x1="120.09" y1="380.10" x2="102.82" y2="387.79"/>
      <line x1="117.63" y1="366.38" x2="99.70" y2="372.90"/>
      <line x1="109.80" y1="354.54" x2="93.23" y2="359.29"/>
      <line x1="108.63" y1="340.68" x2="88.94" y2="344.86"/>
      <line x1="105.43" y1="327.35" x2="86.82" y2="329.96"/>
      <line x1="105.30" y1="313.61" x2="87.75" y2="314.84"/>
      <line x1="104.22" y1="300.00" x2="87.45" y2="300.00"/>
      <line x1="104.95" y1="286.36" x2="84.68" y2="284.94"/>
      <line x1="106.58" y1="272.82" x2="90.03" y2="270.49"/>
      <line x1="110.06" y1="259.63" x2="91.97" y2="255.78"/>
      <line x1="110.50" y1="245.66" x2="94.82" y2="241.16"/>
      <line x1="116.61" y1="233.25" x2="100.42" y2="227.36"/>
      <line x1="119.18" y1="219.50" x2="104.78" y2="213.08"/>
      <line x1="127.97" y1="208.53" x2="112.61" y2="200.36"/>
      <line x1="135.29" y1="197.08" x2="119.64" y2="187.30"/>
      <line x1="140.86" y1="184.38" x2="128.00" y2="175.04"/>
      <line x1="151.26" y1="175.19" x2="136.10" y2="162.47"/>
      <line x1="159.73" y1="164.54" x2="144.63" y2="149.96"/>
      <line x1="169.86" y1="155.47" x2="156.73" y2="140.88"/>
      <line x1="178.66" y1="144.69" x2="168.47" y2="131.65"/>
      <line x1="189.31" y1="135.89" x2="180.38" y2="122.66"/>
      <line x1="202.52" y1="131.15" x2="193.18" y2="114.98"/>
      <line x1="214.89" y1="125.50" x2="206.33" y2="107.94"/>
      <line x1="226.95" y1="119.20" x2="219.25" y2="100.14"/>
      <line x1="239.02" y1="112.33" x2="233.87" y2="96.48"/>
      <line x1="253.04" y1="111.64" x2="248.47" y2="93.31"/>
      <line x1="266.14" y1="107.99" x2="263.04" y2="90.40"/>
      <line x1="279.62" y1="106.14" x2="277.48" y2="85.70"/>
      <line x1="293.21" y1="105.55" x2="292.59" y2="87.92"/>
      <line x1="306.90" y1="102.41" x2="307.48" y2="85.87"/>
      <line x1="320.69" y1="103.12" x2="322.33" y2="87.56"/>
      <line x1="334.31" y1="105.40" x2="337.27" y2="88.64"/>
      <line x1="347.70" y1="108.69" x2="352.01" y2="91.41"/>
      <line x1="360.56" y1="113.61" x2="365.63" y2="98.02"/>
      <line x1="372.99" y1="119.34" x2="380.73" y2="100.20"/>
      <line x1="386.62" y1="122.40" x2="394.56" y2="106.13"/>
      <line x1="397.67" y1="130.83" x2="407.31" y2="114.13"/>
      <line x1="410.27" y1="136.52" x2="419.99" y2="122.11"/>
      <line x1="421.44" y1="144.56" x2="431.82" y2="131.28"/>
      <line x1="431.56" y1="153.88" x2="443.69" y2="140.41"/>
      <line x1="440.32" y1="164.49" x2="455.16" y2="150.17"/>
      <line x1="451.54" y1="172.84" x2="462.63" y2="163.54"/>
      <line x1="460.09" y1="183.69" x2="474.62" y2="173.13"/>
      <line x1="466.79" y1="195.78" x2="479.94" y2="187.56"/>
      <line x1="474.47" y1="207.23" x2="487.64" y2="200.23"/>
      <line x1="480.77" y1="219.52" x2="496.11" y2="212.69"/>
      <line x1="482.53" y1="233.57" x2="499.84" y2="227.26"/>
      <line x1="488.93" y1="245.83" x2="505.98" y2="240.94"/>
      <line x1="492.68" y1="259.04" x2="511.00" y2="255.15"/>
      <line x1="492.98" y1="272.88" x2="509.95" y2="270.49"/>
      <line x1="497.21" y1="286.21" x2="511.54" y2="285.21"/>
    </g>
  </g>

  <!-- fingerprint / identity arcs + keyhole, finer roughening -->
  <g filter="url(#inkRoughFine)" fill="none" stroke="#16233B" stroke-linecap="round" stroke-width="2.6">
    <path d="M 260.71,276.37 C 261.16,275.61 262.52,273.37 263.41,271.80 C 264.30,270.24 264.79,268.21 266.05,266.98 C 267.32,265.75 269.47,265.40 270.99,264.44 C 272.52,263.48 273.74,262.24 275.19,261.23 C 276.64,260.23 278.06,259.02 279.69,258.41 C 281.33,257.80 283.35,258.12 285.03,257.57 C 286.71,257.02 288.11,255.73 289.76,255.11 C 291.42,254.50 293.19,254.20 294.94,253.86 C 296.69,253.52 298.53,252.77 300.27,253.06 C 302.01,253.36 303.67,255.15 305.39,255.62 C 307.11,256.09 308.94,255.48 310.60,255.88 C 312.26,256.29 313.61,257.68 315.36,258.03 C 317.11,258.39 319.40,257.52 321.11,258.02 C 322.81,258.51 324.34,259.72 325.58,261.03 C 326.82,262.33 327.07,264.78 328.55,265.82 C 330.03,266.86 332.89,266.31 334.46,267.25 C 336.03,268.19 337.00,269.91 337.95,271.45 C 338.89,272.99 339.37,274.85 340.11,276.50 C 340.86,278.14 341.97,279.60 342.43,281.30 C 342.90,283.01 342.69,284.98 342.90,286.73 C 343.11,288.48 343.18,290.15 343.69,291.82 C 344.20,293.50 345.84,295.08 345.98,296.78 C 346.12,298.47 344.80,300.27 344.55,302.01 C 344.29,303.74 344.61,305.46 344.43,307.17 C 344.26,308.88 344.02,310.64 343.48,312.27 C 342.93,313.89 341.71,315.26 341.15,316.92 C 340.60,318.57 340.80,320.58 340.16,322.20 C 339.51,323.82 338.15,325.05 337.28,326.62 C 336.41,328.18 336.08,330.25 334.94,331.58 C 333.79,332.91 331.81,333.50 330.40,334.60 C 328.98,335.71 327.90,337.19 326.45,338.18 C 325.00,339.18 323.24,339.72 321.68,340.57 C 320.12,341.42 318.72,342.65 317.07,343.27 C 315.43,343.90 313.57,344.06 311.83,344.31 C 310.08,344.57 308.31,344.27 306.58,344.81 C 304.85,345.35 303.23,347.14 301.47,347.57 C 299.70,348.00 297.80,347.65 296.00,347.42 C 294.20,347.18 292.42,346.66 290.68,346.16 C 288.95,345.65 287.17,345.19 285.58,344.38 C 283.98,343.57 281.85,341.81 281.10,341.29"/>
    <path d="M 255.82,259.53 C 256.58,258.65 258.69,255.87 260.37,254.28 C 262.04,252.70 263.82,251.08 265.86,250.01 C 267.90,248.95 270.43,248.66 272.60,247.91 C 274.78,247.16 276.84,246.44 278.91,245.50 C 280.98,244.57 282.87,243.02 285.01,242.32 C 287.16,241.62 289.52,241.84 291.78,241.30 C 294.03,240.75 296.24,239.30 298.52,239.02 C 300.81,238.75 303.20,239.32 305.50,239.64 C 307.80,239.96 310.08,240.41 312.33,240.95 C 314.57,241.49 316.77,242.19 318.98,242.88 C 321.18,243.58 323.57,243.98 325.55,245.14 C 327.52,246.30 328.91,248.54 330.81,249.84 C 332.71,251.14 335.17,251.58 336.94,252.97 C 338.72,254.35 339.65,256.69 341.47,258.15 C 343.29,259.60 346.50,259.91 347.86,261.69 C 349.22,263.48 348.44,266.87 349.64,268.88 C 350.84,270.89 354.10,271.71 355.08,273.73 C 356.05,275.75 354.79,278.78 355.47,281.00 C 356.16,283.22 358.59,284.89 359.20,287.07 C 359.82,289.25 359.10,291.76 359.18,294.06 C 359.26,296.37 359.45,298.59 359.69,300.90 C 359.92,303.21 361.08,305.71 360.58,307.92 C 360.08,310.13 357.67,312.06 356.71,314.18 C 355.76,316.30 355.20,318.33 354.84,320.64 C 354.48,322.95 355.37,325.92 354.54,328.05 C 353.71,330.17 351.52,331.73 349.88,333.40 C 348.24,335.06 346.01,336.10 344.70,338.03 C 343.39,339.97 343.37,343.11 342.00,345.01 C 340.63,346.91 338.60,348.43 336.48,349.43 C 334.35,350.42 331.39,350.06 329.24,350.97 C 327.09,351.88 325.65,354.00 323.59,354.90 C 321.53,355.80 319.07,355.77 316.87,356.36 C 314.67,356.96 312.59,357.83 310.39,358.48 C 308.19,359.14 305.93,360.22 303.67,360.28 C 301.41,360.34 299.12,358.92 296.81,358.84 C 294.49,358.75 291.99,360.20 289.79,359.76 C 287.59,359.33 285.70,357.12 283.58,356.22 C 281.46,355.31 279.35,354.83 277.09,354.31 C 274.82,353.80 272.03,354.13 269.99,353.12 C 267.96,352.11 265.73,349.06 264.88,348.25"/>
    <path d="M 263.03,236.79 C 264.16,235.96 267.37,233.12 269.81,231.79 C 272.25,230.46 275.01,229.76 277.66,228.84 C 280.30,227.91 282.93,226.53 285.69,226.26 C 288.45,225.99 291.43,227.13 294.22,227.23 C 297.02,227.34 299.71,226.79 302.43,226.90 C 305.16,227.01 307.88,227.50 310.59,227.90 C 313.29,228.30 315.93,228.90 318.68,229.31 C 321.43,229.71 324.56,229.29 327.09,230.33 C 329.61,231.37 331.42,234.13 333.84,235.52 C 336.25,236.91 339.30,237.17 341.58,238.67 C 343.87,240.16 345.53,242.60 347.54,244.49 C 349.56,246.38 351.71,248.07 353.66,250.01 C 355.62,251.94 357.41,254.03 359.29,256.09 C 361.17,258.15 363.50,260.02 364.97,262.37 C 366.44,264.72 367.40,267.49 368.11,270.19 C 368.82,272.90 368.56,275.90 369.21,278.59 C 369.86,281.28 371.42,283.68 372.00,286.34 C 372.57,289.00 372.14,291.79 372.66,294.54 C 373.19,297.29 374.89,300.04 375.14,302.82 C 375.38,305.60 374.60,308.43 374.15,311.21 C 373.70,313.98 373.13,316.74 372.41,319.46 C 371.69,322.17 370.89,324.89 369.83,327.49 C 368.77,330.08 367.33,332.51 366.07,335.03 C 364.81,337.55 363.82,340.27 362.26,342.60 C 360.70,344.92 358.81,347.13 356.71,348.99 C 354.61,350.86 351.73,351.86 349.68,353.78 C 347.64,355.71 346.60,358.82 344.46,360.55 C 342.31,362.28 339.26,362.80 336.80,364.15 C 334.34,365.50 332.23,367.53 329.71,368.67 C 327.18,369.80 324.34,370.34 321.63,370.98 C 318.92,371.63 316.18,372.14 313.45,372.54 C 310.71,372.94 307.96,373.19 305.20,373.38 C 302.45,373.58 299.67,373.85 296.92,373.71 C 294.18,373.57 291.41,373.12 288.73,372.53 C 286.04,371.95 283.57,370.68 280.82,370.20 C 278.07,369.73 274.93,370.38 272.23,369.69 C 269.53,369.01 267.14,367.33 264.61,366.07 C 262.09,364.82 259.35,363.81 257.08,362.18 C 254.81,360.54 252.95,358.27 250.99,356.25 C 249.03,354.24 246.25,351.13 245.30,350.10"/>
    <path d="M 271.96,217.92 C 273.45,217.17 277.80,214.41 280.94,213.43 C 284.08,212.44 287.50,212.47 290.80,211.99 C 294.10,211.52 297.46,210.36 300.74,210.59 C 304.03,210.82 307.28,212.61 310.52,213.37 C 313.75,214.13 316.90,214.62 320.16,215.14 C 323.42,215.67 326.92,215.59 330.08,216.50 C 333.25,217.42 336.30,218.96 339.16,220.63 C 342.01,222.29 344.41,224.70 347.21,226.48 C 350.00,228.26 353.36,229.27 355.93,231.30 C 358.50,233.33 360.27,236.32 362.63,238.66 C 364.99,240.99 368.19,242.66 370.08,245.33 C 371.98,247.99 372.51,251.68 373.98,254.64 C 375.45,257.60 377.14,260.28 378.91,263.09 C 380.68,265.90 383.50,268.42 384.61,271.49 C 385.72,274.56 385.21,278.24 385.58,281.54 C 385.94,284.84 386.23,288.03 386.80,291.29 C 387.36,294.55 388.81,297.82 388.97,301.11 C 389.12,304.40 388.49,307.80 387.73,311.02 C 386.98,314.25 385.26,317.24 384.44,320.44 C 383.62,323.64 383.69,327.05 382.82,330.23 C 381.95,333.41 380.87,336.66 379.22,339.50 C 377.58,342.34 374.76,344.50 372.95,347.27 C 371.14,350.05 370.46,353.66 368.38,356.15 C 366.30,358.65 362.95,360.09 360.47,362.26 C 357.99,364.44 356.10,367.23 353.52,369.20 C 350.94,371.17 347.82,372.44 344.99,374.07 C 342.16,375.71 339.34,377.19 336.55,379.01 C 333.76,380.82 331.30,383.83 328.23,384.96 C 325.16,386.09 321.41,385.10 318.13,385.80 C 314.86,386.50 311.83,388.83 308.57,389.16 C 305.30,389.49 301.86,388.05 298.53,387.79 C 295.21,387.53 291.93,387.81 288.62,387.61 C 285.30,387.41 281.88,387.35 278.65,386.60 C 275.43,385.85 272.22,384.62 269.27,383.10 C 266.32,381.58 263.90,379.01 260.96,377.48 C 258.03,375.94 254.57,375.45 251.68,373.89 C 248.78,372.32 245.98,370.36 243.60,368.10 C 241.21,365.85 239.42,362.89 237.35,360.34 C 235.28,357.78 233.49,355.15 231.19,352.75 C 228.90,350.36 224.84,347.11 223.57,345.98"/>

    <!-- keyhole -->
    <circle cx="300" cy="291" r="15.5"/>
    <path d="M 292,301 L 296,336 L 304,336 L 308,301"/>
  </g>

  <!-- verified accent tick, single warm ink color to mark it as the "signed" mark -->
  <g filter="url(#inkRoughFine)" fill="none" stroke="#3E7A63" stroke-width="4.5" stroke-linecap="round">
    <path d="M 284,318 L 296,331 L 320,304"/>
  </g>

  <!-- arced text -->
  <g font-family="'IBM Plex Mono', 'Courier New', monospace" fill="#16233B">
    <text font-size="16.5" letter-spacing="4.5">
      <textPath href="#topArc" startOffset="50%" text-anchor="middle">VERIFIED ONCE · TRUSTED EVERYWHERE</textPath>
    </text>
    <text font-size="27" letter-spacing="7" font-weight="600">
      <textPath href="#bottomArc" startOffset="50%" text-anchor="middle">KYC · VAULT</textPath>
    </text>
  </g>
</svg>
